<svg aria-roledescription="er" role="graphics-document document" viewBox="0 0 185.05133056640625 496" style="max-width: 185.051px; background-color: white;" xmlns:xlink="http://www.w3.org/1999/xlink" xmlns="http://www.w3.org/2000/svg" width="100%" id="my-svg"><style>#my-svg{font-family:"trebuchet ms",verdana,arial,sans-serif;font-size:16px;fill:#000000;}#my-svg .error-icon{fill:#552222;}#my-svg .error-text{fill:#552222;stroke:#552222;}#my-svg .edge-thickness-normal{stroke-width:2px;}#my-svg .edge-thickness-thick{stroke-width:3.5px;}#my-svg .edge-pattern-solid{stroke-dasharray:0;}#my-svg .edge-pattern-dashed{stroke-dasharray:3;}#my-svg .edge-pattern-dotted{stroke-dasharray:2;}#my-svg .marker{fill:#000000;stroke:#000000;}#my-svg .marker.cross{stroke:#000000;}#my-svg svg{font-family:"trebuchet ms",verdana,arial,sans-serif;font-size:16px;}#my-svg .entityBox{fill:#cde498;stroke:#13540c;}#my-svg .attributeBoxOdd{fill:#ffffff;stroke:#13540c;}#my-svg .attributeBoxEven{fill:#f2f2f2;stroke:#13540c;}#my-svg .relationshipLabelBox{fill:hsl(78.1578947368, 58.4615384615%, 84.5098039216%);opacity:0.7;background-color:hsl(78.1578947368, 58.4615384615%, 84.5098039216%);}#my-svg .relationshipLabelBox rect{opacity:0.5;}#my-svg .relationshipLine{stroke:#000000;}#my-svg .entityTitleText{text-anchor:middle;font-size:18px;fill:#000000;}#my-svg #MD_PARENT_START{fill:#f5f5f5!important;stroke:#000000!important;stroke-width:1;}#my-svg #MD_PARENT_END{fill:#f5f5f5!important;stroke:#000000!important;stroke-width:1;}#my-svg :root{--mermaid-font-family:"trebuchet ms",verdana,arial,sans-serif;}</style><g/><defs><marker orient="auto" markerHeight="240" markerWidth="190" refY="7" refX="0" id="MD_PARENT_START"><path d="M 18,7 L9,13 L1,7 L9,1 Z"/></marker></defs><defs><marker orient="auto" markerHeight="28" markerWidth="20" refY="7" refX="19" id="MD_PARENT_END"><path d="M 18,7 L9,13 L1,7 L9,1 Z"/></marker></defs><defs><marker orient="auto" markerHeight="18" markerWidth="18" refY="9" refX="0" id="ONLY_ONE_START"><path d="M9,0 L9,18 M15,0 L15,18" fill="none" stroke="gray"/></marker></defs><defs><marker orient="auto" markerHeight="18" markerWidth="18" refY="9" refX="18" id="ONLY_ONE_END"><path d="M3,0 L3,18 M9,0 L9,18" fill="none" stroke="gray"/></marker></defs><defs><marker orient="auto" markerHeight="18" markerWidth="30" refY="9" refX="0" id="ZERO_OR_ONE_START"><circle r="6" cy="9" cx="21" fill="white" stroke="gray"/><path d="M9,0 L9,18" fill="none" stroke="gray"/></marker></defs><defs><marker orient="auto" markerHeight="18" markerWidth="30" refY="9" refX="30" id="ZERO_OR_ONE_END"><circle r="6" cy="9" cx="9" fill="white" stroke="gray"/><path d="M21,0 L21,18" fill="none" stroke="gray"/></marker></defs><defs><marker orient="auto" markerHeight="36" markerWidth="45" refY="18" refX="18" id="ONE_OR_MORE_START"><path d="M0,18 Q 18,0 36,18 Q 18,36 0,18 M42,9 L42,27" fill="none" stroke="gray"/></marker></defs><defs><marker orient="auto" markerHeight="36" markerWidth="45" refY="18" refX="27" id="ONE_OR_MORE_END"><path d="M3,9 L3,27 M9,18 Q27,0 45,18 Q27,36 9,18" fill="none" stroke="gray"/></marker></defs><defs><marker orient="auto" markerHeight="36" markerWidth="57" refY="18" refX="18" id="ZERO_OR_MORE_START"><circle r="6" cy="18" cx="48" fill="white" stroke="gray"/><path d="M0,18 Q18,0 36,18 Q18,36 0,18" fill="none" stroke="gray"/></marker></defs><defs><marker orient="auto" markerHeight="36" markerWidth="57" refY="18" refX="39" id="ZERO_OR_MORE_END"><circle r="6" cy="18" cx="9" fill="white" stroke="gray"/><path d="M21,18 Q39,0 57,18 Q39,36 21,18" fill="none" stroke="gray"/></marker></defs><path style="stroke: gray; fill: none;" marker-start="url(#ZERO_OR_MORE_START)" marker-end="url(#ZERO_OR_MORE_END)" d="M56.18686746899547,286L53.91000043803009,294.3333333333333C51.63313340706469,302.6666666666667,47.07939934513391,319.3333333333333,49.188497226449215,336C51.29759510776453,352.6666666666667,60.069524932325926,369.3333333333333,64.45548984460663,377.6666666666667L68.84145475688733,386" class="er relationshipLine"/><path style="stroke: gray; fill: none;" marker-start="url(#ZERO_OR_ONE_START)" marker-end="url(#ONLY_ONE_END)" d="M116.20987580951892,386L120.59584072179962,377.6666666666667C124.98180563408032,369.3333333333333,133.75373545864173,352.6666666666667,135.86283333995704,336C137.97193122127234,319.3333333333333,133.41819715934156,302.6666666666667,131.14133012837615,294.3333333333333L128.86446309741078,286" class="er relationshipLine"/><g transform="translate(20,20 )" id="entity-Task-48d7b74a-e47a-5efe-8103-e90c35d0bbcd"><rect height="266" width="145.05133056640625" y="0" x="0" class="er entityBox"/><text style="dominant-baseline: middle; text-anchor: middle; font-size: 12px;" transform="translate(72.52566528320312,12)" y="0" x="0" id="text-entity-Task-48d7b74a-e47a-5efe-8103-e90c35d0bbcd" class="er entityLabel">Task</text><rect height="22" width="54.095550537109375" y="24" x="0" class="er attributeBoxOdd"/><text style="dominant-baseline: middle; font-size: 10.2px;" transform="translate(5,35)" y="0" x="0" id="text-entity-Task-48d7b74a-e47a-5efe-8103-e90c35d0bbcd-attr-1-type" class="er entityLabel">String</text><rect height="22" width="66.94015502929688" y="24" x="54.095550537109375" class="er attributeBoxOdd"/><text style="dominant-baseline: middle; font-size: 10.2px;" transform="translate(59.095550537109375,35)" y="0" x="0" id="text-entity-Task-48d7b74a-e47a-5efe-8103-e90c35d0bbcd-attr-1-name" class="er entityLabel">taskId</text><rect height="22" width="24.015625" y="24" x="121.03570556640625" class="er attributeBoxOdd"/><text style="dominant-baseline: middle; font-size: 10.2px;" transform="translate(126.03570556640625,35)" y="0" x="0" id="text-entity-Task-48d7b74a-e47a-5efe-8103-e90c35d0bbcd-attr-1-comment" class="er entityLabel">🗝️</text><rect height="22" width="54.095550537109375" y="46" x="0" class="er attributeBoxEven"/><text style="dominant-baseline: middle; font-size: 10.2px;" transform="translate(5,57)" y="0" x="0" id="text-entity-Task-48d7b74a-e47a-5efe-8103-e90c35d0bbcd-attr-2-type" class="er entityLabel">String</text><rect height="22" width="66.94015502929688" y="46" x="54.095550537109375" class="er attributeBoxEven"/><text style="dominant-baseline: middle; font-size: 10.2px;" transform="translate(59.095550537109375,57)" y="0" x="0" id="text-entity-Task-48d7b74a-e47a-5efe-8103-e90c35d0bbcd-attr-2-name" class="er entityLabel">owner</text><rect height="22" width="24.015625" y="46" x="121.03570556640625" class="er attributeBoxEven"/><text style="dominant-baseline: middle; font-size: 10.2px;" transform="translate(126.03570556640625,57)" y="0" x="0" id="text-entity-Task-48d7b74a-e47a-5efe-8103-e90c35d0bbcd-attr-2-comment" class="er entityLabel"/><rect height="22" width="54.095550537109375" y="68" x="0" class="er attributeBoxOdd"/><text style="dominant-baseline: middle; font-size: 10.2px;" transform="translate(5,79)" y="0" x="0" id="text-entity-Task-48d7b74a-e47a-5efe-8103-e90c35d0bbcd-attr-3-type" class="er entityLabel">String</text><rect height="22" width="66.94015502929688" y="68" x="54.095550537109375" class="er attributeBoxOdd"/><text style="dominant-baseline: middle; font-size: 10.2px;" transform="translate(59.095550537109375,79)" y="0" x="0" id="text-entity-Task-48d7b74a-e47a-5efe-8103-e90c35d0bbcd-attr-3-name" class="er entityLabel">assignedTo</text><rect height="22" width="24.015625" y="68" x="121.03570556640625" class="er attributeBoxOdd"/><text style="dominant-baseline: middle; font-size: 10.2px;" transform="translate(126.03570556640625,79)" y="0" x="0" id="text-entity-Task-48d7b74a-e47a-5efe-8103-e90c35d0bbcd-attr-3-comment" class="er entityLabel"/><rect height="22" width="54.095550537109375" y="90" x="0" class="er attributeBoxEven"/><text style="dominant-baseline: middle; font-size: 10.2px;" transform="translate(5,101)" y="0" x="0" id="text-entity-Task-48d7b74a-e47a-5efe-8103-e90c35d0bbcd-attr-4-type" class="er entityLabel">String</text><rect height="22" width="66.94015502929688" y="90" x="54.095550537109375" class="er attributeBoxEven"/><text style="dominant-baseline: middle; font-size: 10.2px;" transform="translate(59.095550537109375,101)" y="0" x="0" id="text-entity-Task-48d7b74a-e47a-5efe-8103-e90c35d0bbcd-attr-4-name" class="er entityLabel">title</text><rect height="22" width="24.015625" y="90" x="121.03570556640625" class="er attributeBoxEven"/><text style="dominant-baseline: middle; font-size: 10.2px;" transform="translate(126.03570556640625,101)" y="0" x="0" id="text-entity-Task-48d7b74a-e47a-5efe-8103-e90c35d0bbcd-attr-4-comment" class="er entityLabel"/><rect height="22" width="54.095550537109375" y="112" x="0" class="er attributeBoxOdd"/><text style="dominant-baseline: middle; font-size: 10.2px;" transform="translate(5,123)" y="0" x="0" id="text-entity-Task-48d7b74a-e47a-5efe-8103-e90c35d0bbcd-attr-5-type" class="er entityLabel">String</text><rect height="22" width="66.94015502929688" y="112" x="54.095550537109375" class="er attributeBoxOdd"/><text style="dominant-baseline: middle; font-size: 10.2px;" transform="translate(59.095550537109375,123)" y="0" x="0" id="text-entity-Task-48d7b74a-e47a-5efe-8103-e90c35d0bbcd-attr-5-name" class="er entityLabel">description</text><rect height="22" width="24.015625" y="112" x="121.03570556640625" class="er attributeBoxOdd"/><text style="dominant-baseline: middle; font-size: 10.2px;" transform="translate(126.03570556640625,123)" y="0" x="0" id="text-entity-Task-48d7b74a-e47a-5efe-8103-e90c35d0bbcd-attr-5-comment" class="er entityLabel">❓</text><rect height="22" width="54.095550537109375" y="134" x="0" class="er attributeBoxEven"/><text style="dominant-baseline: middle; font-size: 10.2px;" transform="translate(5,145)" y="0" x="0" id="text-entity-Task-48d7b74a-e47a-5efe-8103-e90c35d0bbcd-attr-6-type" class="er entityLabel">String</text><rect height="22" width="66.94015502929688" y="134" x="54.095550537109375" class="er attributeBoxEven"/><text style="dominant-baseline: middle; font-size: 10.2px;" transform="translate(59.095550537109375,145)" y="0" x="0" id="text-entity-Task-48d7b74a-e47a-5efe-8103-e90c35d0bbcd-attr-6-name" class="er entityLabel">toDoList</text><rect height="22" width="24.015625" y="134" x="121.03570556640625" class="er attributeBoxEven"/><text style="dominant-baseline: middle; font-size: 10.2px;" transform="translate(126.03570556640625,145)" y="0" x="0" id="text-entity-Task-48d7b74a-e47a-5efe-8103-e90c35d0bbcd-attr-6-comment" class="er entityLabel"/><rect height="22" width="54.095550537109375" y="156" x="0" class="er attributeBoxOdd"/><text style="dominant-baseline: middle; font-size: 10.2px;" transform="translate(5,167)" y="0" x="0" id="text-entity-Task-48d7b74a-e47a-5efe-8103-e90c35d0bbcd-attr-7-type" class="er entityLabel">String</text><rect height="22" width="66.94015502929688" y="156" x="54.095550537109375" class="er attributeBoxOdd"/><text style="dominant-baseline: middle; font-size: 10.2px;" transform="translate(59.095550537109375,167)" y="0" x="0" id="text-entity-Task-48d7b74a-e47a-5efe-8103-e90c35d0bbcd-attr-7-name" class="er entityLabel">images</text><rect height="22" width="24.015625" y="156" x="121.03570556640625" class="er attributeBoxOdd"/><text style="dominant-baseline: middle; font-size: 10.2px;" transform="translate(126.03570556640625,167)" y="0" x="0" id="text-entity-Task-48d7b74a-e47a-5efe-8103-e90c35d0bbcd-attr-7-comment" class="er entityLabel">❓</text><rect height="22" width="54.095550537109375" y="178" x="0" class="er attributeBoxEven"/><text style="dominant-baseline: middle; font-size: 10.2px;" transform="translate(5,189)" y="0" x="0" id="text-entity-Task-48d7b74a-e47a-5efe-8103-e90c35d0bbcd-attr-8-type" class="er entityLabel">Boolean</text><rect height="22" width="66.94015502929688" y="178" x="54.095550537109375" class="er attributeBoxEven"/><text style="dominant-baseline: middle; font-size: 10.2px;" transform="translate(59.095550537109375,189)" y="0" x="0" id="text-entity-Task-48d7b74a-e47a-5efe-8103-e90c35d0bbcd-attr-8-name" class="er entityLabel">isFavorite</text><rect height="22" width="24.015625" y="178" x="121.03570556640625" class="er attributeBoxEven"/><text style="dominant-baseline: middle; font-size: 10.2px;" transform="translate(126.03570556640625,189)" y="0" x="0" id="text-entity-Task-48d7b74a-e47a-5efe-8103-e90c35d0bbcd-attr-8-comment" class="er entityLabel"/><rect height="22" width="54.095550537109375" y="200" x="0" class="er attributeBoxOdd"/><text style="dominant-baseline: middle; font-size: 10.2px;" transform="translate(5,211)" y="0" x="0" id="text-entity-Task-48d7b74a-e47a-5efe-8103-e90c35d0bbcd-attr-9-type" class="er entityLabel">Boolean</text><rect height="22" width="66.94015502929688" y="200" x="54.095550537109375" class="er attributeBoxOdd"/><text style="dominant-baseline: middle; font-size: 10.2px;" transform="translate(59.095550537109375,211)" y="0" x="0" id="text-entity-Task-48d7b74a-e47a-5efe-8103-e90c35d0bbcd-attr-9-name" class="er entityLabel">isCompleted</text><rect height="22" width="24.015625" y="200" x="121.03570556640625" class="er attributeBoxOdd"/><text style="dominant-baseline: middle; font-size: 10.2px;" transform="translate(126.03570556640625,211)" y="0" x="0" id="text-entity-Task-48d7b74a-e47a-5efe-8103-e90c35d0bbcd-attr-9-comment" class="er entityLabel"/><rect height="22" width="54.095550537109375" y="222" x="0" class="er attributeBoxEven"/><text style="dominant-baseline: middle; font-size: 10.2px;" transform="translate(5,233)" y="0" x="0" id="text-entity-Task-48d7b74a-e47a-5efe-8103-e90c35d0bbcd-attr-10-type" class="er entityLabel">DateTime</text><rect height="22" width="66.94015502929688" y="222" x="54.095550537109375" class="er attributeBoxEven"/><text style="dominant-baseline: middle; font-size: 10.2px;" transform="translate(59.095550537109375,233)" y="0" x="0" id="text-entity-Task-48d7b74a-e47a-5efe-8103-e90c35d0bbcd-attr-10-name" class="er entityLabel">createdAt</text><rect height="22" width="24.015625" y="222" x="121.03570556640625" class="er attributeBoxEven"/><text style="dominant-baseline: middle; font-size: 10.2px;" transform="translate(126.03570556640625,233)" y="0" x="0" id="text-entity-Task-48d7b74a-e47a-5efe-8103-e90c35d0bbcd-attr-10-comment" class="er entityLabel"/><rect height="22" width="54.095550537109375" y="244" x="0" class="er attributeBoxOdd"/><text style="dominant-baseline: middle; font-size: 10.2px;" transform="translate(5,255)" y="0" x="0" id="text-entity-Task-48d7b74a-e47a-5efe-8103-e90c35d0bbcd-attr-11-type" class="er entityLabel">DateTime</text><rect height="22" width="66.94015502929688" y="244" x="54.095550537109375" class="er attributeBoxOdd"/><text style="dominant-baseline: middle; font-size: 10.2px;" transform="translate(59.095550537109375,255)" y="0" x="0" id="text-entity-Task-48d7b74a-e47a-5efe-8103-e90c35d0bbcd-attr-11-name" class="er entityLabel">deadline</text><rect height="22" width="24.015625" y="244" x="121.03570556640625" class="er attributeBoxOdd"/><text style="dominant-baseline: middle; font-size: 10.2px;" transform="translate(126.03570556640625,255)" y="0" x="0" id="text-entity-Task-48d7b74a-e47a-5efe-8103-e90c35d0bbcd-attr-11-comment" class="er entityLabel">❓</text></g><g transform="translate(31.081520080566406,386 )" id="entity-Comment-09a819da-2a79-5b7d-8a84-94cec22d9152"><rect height="90" width="122.88829040527344" y="0" x="0" class="er entityBox"/><text style="dominant-baseline: middle; text-anchor: middle; font-size: 12px;" transform="translate(61.44414520263672,12)" y="0" x="0" id="text-entity-Comment-09a819da-2a79-5b7d-8a84-94cec22d9152" class="er entityLabel">Comment</text><rect height="22" width="37.39605712890625" y="24" x="0" class="er attributeBoxOdd"/><text style="dominant-baseline: middle; font-size: 10.2px;" transform="translate(5,35)" y="0" x="0" id="text-entity-Comment-09a819da-2a79-5b7d-8a84-94cec22d9152-attr-1-type" class="er entityLabel">String</text><rect height="22" width="61.47660827636719" y="24" x="37.39605712890625" class="er attributeBoxOdd"/><text style="dominant-baseline: middle; font-size: 10.2px;" transform="translate(42.39605712890625,35)" y="0" x="0" id="text-entity-Comment-09a819da-2a79-5b7d-8a84-94cec22d9152-attr-1-name" class="er entityLabel">commentId</text><rect height="22" width="24.015625" y="24" x="98.87266540527344" class="er attributeBoxOdd"/><text style="dominant-baseline: middle; font-size: 10.2px;" transform="translate(103.87266540527344,35)" y="0" x="0" id="text-entity-Comment-09a819da-2a79-5b7d-8a84-94cec22d9152-attr-1-comment" class="er entityLabel">🗝️</text><rect height="22" width="37.39605712890625" y="46" x="0" class="er attributeBoxEven"/><text style="dominant-baseline: middle; font-size: 10.2px;" transform="translate(5,57)" y="0" x="0" id="text-entity-Comment-09a819da-2a79-5b7d-8a84-94cec22d9152-attr-2-type" class="er entityLabel">String</text><rect height="22" width="61.47660827636719" y="46" x="37.39605712890625" class="er attributeBoxEven"/><text style="dominant-baseline: middle; font-size: 10.2px;" transform="translate(42.39605712890625,57)" y="0" x="0" id="text-entity-Comment-09a819da-2a79-5b7d-8a84-94cec22d9152-attr-2-name" class="er entityLabel">ownerId</text><rect height="22" width="24.015625" y="46" x="98.87266540527344" class="er attributeBoxEven"/><text style="dominant-baseline: middle; font-size: 10.2px;" transform="translate(103.87266540527344,57)" y="0" x="0" id="text-entity-Comment-09a819da-2a79-5b7d-8a84-94cec22d9152-attr-2-comment" class="er entityLabel"/><rect height="22" width="37.39605712890625" y="68" x="0" class="er attributeBoxOdd"/><text style="dominant-baseline: middle; font-size: 10.2px;" transform="translate(5,79)" y="0" x="0" id="text-entity-Comment-09a819da-2a79-5b7d-8a84-94cec22d9152-attr-3-type" class="er entityLabel">String</text><rect height="22" width="61.47660827636719" y="68" x="37.39605712890625" class="er attributeBoxOdd"/><text style="dominant-baseline: middle; font-size: 10.2px;" transform="translate(42.39605712890625,79)" y="0" x="0" id="text-entity-Comment-09a819da-2a79-5b7d-8a84-94cec22d9152-attr-3-name" class="er entityLabel">comment</text><rect height="22" width="24.015625" y="68" x="98.87266540527344" class="er attributeBoxOdd"/><text style="dominant-baseline: middle; font-size: 10.2px;" transform="translate(103.87266540527344,79)" y="0" x="0" id="text-entity-Comment-09a819da-2a79-5b7d-8a84-94cec22d9152-attr-3-comment" class="er entityLabel"/></g><rect height="14" width="55.162109375" y="330.5745849609375" x="21.826244354248047" class="er relationshipLabelBox"/><text style="text-anchor: middle; dominant-baseline: middle; font-size: 12px;" y="337.5745849609375" x="49.40729904174805" id="rel1" class="er relationshipLabel">comments</text><rect height="14" width="22.919921875" y="330.5745849609375" x="124.18408203125" class="er relationshipLabelBox"/><text style="text-anchor: middle; dominant-baseline: middle; font-size: 12px;" y="337.5745849609375" x="135.64404296875" id="rel2" class="er relationshipLabel">task</text></svg>